<svg width="167" height="50" viewBox="0 0 167 50" fill="none" xmlns="http://www.w3.org/2000/svg">
<path d="M66.02 25.13C63.43 23.47 59.44 22.88 55.49 22.88H55.63C53.94 22.88 52.24 22.65 51.13 22C50.02 21.36 49.63 20.37 49.63 19.39C49.63 18.41 50.02 17.42 51.13 16.78C52.24 16.13 53.94 15.9 55.63 15.9C57.32 15.9 59.02 16.14 60.12 16.78C61.23 17.42 61.63 18.41 61.63 19.39H68.22C68.22 16.86 67.37 14.32 65.02 12.66C62.67 11 59.07 10.4 55.49 10.4C51.91 10.4 48.31 11 45.96 12.66C43.61 14.32 42.77 16.86 42.77 19.39C42.77 21.92 43.61 24.47 45.96 26.12C48.31 27.78 51.91 28.38 55.49 28.38C57.35 28.38 59.39 28.61 60.61 29.25C61.84 29.9 62.28 30.89 62.28 31.87C62.28 32.85 61.84 33.84 60.61 34.48C59.39 35.12 57.51 35.35 55.64 35.35C53.78 35.35 51.9 35.12 50.67 34.48C49.45 33.83 49.01 32.85 49.01 31.87H41.42C41.42 34.39 42.35 36.94 44.95 38.6C47.55 40.26 51.53 40.85 55.49 40.85C59.44 40.85 63.43 40.26 66.02 38.6C68.62 36.94 69.55 34.39 69.55 31.87C69.55 29.34 68.62 26.79 66.02 25.13Z" fill="url(#paint0_linear_1_26)"/>
<path d="M87.97 10.4C84.01 10.4 80.03 11.41 77.43 14.22C74.84 17.03 73.9 21.34 73.9 25.63C73.9 29.91 74.84 34.23 77.43 37.04C80.03 39.85 84.01 40.86 87.97 40.86C91.93 40.86 95.91 39.85 98.51 37.04C99.84 35.59 100.74 33.75 101.29 31.71H94.9C94.72 31.98 94.52 32.24 94.3 32.48C92.74 34.17 90.35 34.77 87.97 34.77C85.6 34.77 83.2 34.17 81.65 32.48C80.09 30.79 79.53 28.2 79.53 25.63C79.53 23.06 80.09 20.47 81.65 18.78C83.2 17.09 85.6 16.49 87.97 16.49C90.35 16.49 92.74 17.09 94.3 18.78C95.38 19.95 95.98 21.54 96.25 23.27H84.8V27.99H102.04V25.63C102.04 21.34 101.11 17.03 98.51 14.22C95.91 11.41 91.93 10.4 87.97 10.4Z" fill="url(#paint1_linear_1_26)"/>
<path d="M120.45 10.4C116.49 10.4 112.51 11.41 109.91 14.22C107.32 17.03 106.38 21.34 106.38 25.63C106.38 29.91 107.32 34.23 109.91 37.04C112.51 39.85 116.49 40.86 120.45 40.86C124.41 40.86 128.39 39.85 130.99 37.04C132.32 35.59 133.22 33.75 133.78 31.71H127.38C127.2 31.98 127 32.24 126.78 32.48C125.22 34.17 122.83 34.77 120.45 34.77C118.08 34.77 115.68 34.17 114.13 32.48C112.57 30.79 112.01 28.2 112.01 25.63C112.01 23.06 112.57 20.47 114.13 18.78C115.68 17.09 118.08 16.49 120.45 16.49C122.83 16.49 125.22 17.09 126.78 18.78C127.86 19.95 128.46 21.54 128.73 23.27H117.29V27.99H134.52V25.63C134.52 21.34 133.59 17.03 130.99 14.22C128.39 11.41 124.41 10.4 120.45 10.4Z" fill="url(#paint2_linear_1_26)"/>
<path fill-rule="evenodd" clip-rule="evenodd" d="M138.86 0.609985H145.33V40.86H138.86V0.609985Z" fill="url(#paint3_linear_1_26)"/>
<path d="M66.02 25.13C63.43 23.47 59.44 22.88 55.49 22.88H55.63C53.94 22.88 52.24 22.65 51.13 22C50.02 21.36 49.63 20.37 49.63 19.39C49.63 18.41 50.02 17.42 51.13 16.78C52.24 16.13 53.94 15.9 55.63 15.9C57.32 15.9 59.02 16.14 60.12 16.78C61.23 17.42 61.63 18.41 61.63 19.39H68.22C68.22 16.86 67.37 14.32 65.02 12.66C62.67 11 59.07 10.4 55.49 10.4C51.91 10.4 48.31 11 45.96 12.66C43.61 14.32 42.77 16.86 42.77 19.39C42.77 21.92 43.61 24.47 45.96 26.12C48.31 27.78 51.91 28.38 55.49 28.38C57.35 28.38 59.39 28.61 60.61 29.25C61.84 29.9 62.28 30.89 62.28 31.87C62.28 32.85 61.84 33.84 60.61 34.48C59.39 35.12 57.51 35.35 55.64 35.35C53.78 35.35 51.9 35.12 50.67 34.48C49.45 33.83 49.01 32.85 49.01 31.87H41.42C41.42 34.39 42.35 36.94 44.95 38.6C47.55 40.26 51.53 40.85 55.49 40.85C59.44 40.85 63.43 40.26 66.02 38.6C68.62 36.94 69.55 34.39 69.55 31.87C69.55 29.34 68.62 26.79 66.02 25.13Z" fill="url(#paint4_linear_1_26)"/>
<path d="M87.97 10.4C84.01 10.4 80.03 11.41 77.43 14.22C74.84 17.03 73.9 21.34 73.9 25.63C73.9 29.91 74.84 34.23 77.43 37.04C80.03 39.85 84.01 40.86 87.97 40.86C91.93 40.86 95.91 39.85 98.51 37.04C99.84 35.59 100.74 33.75 101.29 31.71H94.9C94.72 31.98 94.52 32.24 94.3 32.48C92.74 34.17 90.35 34.77 87.97 34.77C85.6 34.77 83.2 34.17 81.65 32.48C80.09 30.79 79.53 28.2 79.53 25.63C79.53 23.06 80.09 20.47 81.65 18.78C83.2 17.09 85.6 16.49 87.97 16.49C90.35 16.49 92.74 17.09 94.3 18.78C95.38 19.95 95.98 21.54 96.25 23.27H84.8V27.99H102.04V25.63C102.04 21.34 101.11 17.03 98.51 14.22C95.91 11.41 91.93 10.4 87.97 10.4Z" fill="url(#paint5_linear_1_26)"/>
<path d="M120.45 10.4C116.49 10.4 112.51 11.41 109.91 14.22C107.32 17.03 106.38 21.34 106.38 25.63C106.38 29.91 107.32 34.23 109.91 37.04C112.51 39.85 116.49 40.86 120.45 40.86C124.41 40.86 128.39 39.85 130.99 37.04C132.32 35.59 133.22 33.75 133.78 31.71H127.38C127.2 31.98 127 32.24 126.78 32.48C125.22 34.17 122.83 34.77 120.45 34.77C118.08 34.77 115.68 34.17 114.13 32.48C112.57 30.79 112.01 28.2 112.01 25.63C112.01 23.06 112.57 20.47 114.13 18.78C115.68 17.09 118.08 16.49 120.45 16.49C122.83 16.49 125.22 17.09 126.78 18.78C127.86 19.95 128.46 21.54 128.73 23.27H117.29V27.99H134.52V25.63C134.52 21.34 133.59 17.03 130.99 14.22C128.39 11.41 124.41 10.4 120.45 10.4Z" fill="url(#paint6_linear_1_26)"/>
<path fill-rule="evenodd" clip-rule="evenodd" d="M138.86 0.609985H145.33V40.86H138.86V0.609985Z" fill="url(#paint7_linear_1_26)"/>
<path d="M158.98 11.75L148.36 24.72L158.98 40.86H167L156.38 24.72L167 11.75H158.98Z" fill="url(#paint8_linear_1_26)"/>
<path d="M1.42756 -2.63636H8.90625L20.3054 17.2003H20.7741L32.1733 -2.63636H39.652L23.821 23.8693V41H17.2585V23.8693L1.42756 -2.63636Z" fill="#FF6200"/>
<defs>
<linearGradient id="paint0_linear_1_26" x1="-88.5361" y1="24.2876" x2="296.5" y2="24.2876" gradientUnits="userSpaceOnUse">
<stop stop-color="white"/>
<stop offset="1"/>
</linearGradient>
<linearGradient id="paint1_linear_1_26" x1="-88.5358" y1="24.2855" x2="296.464" y2="24.2855" gradientUnits="userSpaceOnUse">
<stop stop-color="white"/>
<stop offset="1"/>
</linearGradient>
<linearGradient id="paint2_linear_1_26" x1="-88.5358" y1="24.2855" x2="296.464" y2="24.2855" gradientUnits="userSpaceOnUse">
<stop stop-color="white"/>
<stop offset="1"/>
</linearGradient>
<linearGradient id="paint3_linear_1_26" x1="-88.5" y1="24.2881" x2="296.656" y2="24.2881" gradientUnits="userSpaceOnUse">
<stop stop-color="white"/>
<stop offset="0.55" stop-color="#737373"/>
<stop offset="1"/>
</linearGradient>
<linearGradient id="paint4_linear_1_26" x1="296.5" y1="-0.710212" x2="-88.5002" y2="-0.710212" gradientUnits="userSpaceOnUse">
<stop stop-color="#4D6BFE"/>
<stop offset="0.603054" stop-color="#3982FF"/>
<stop offset="1" stop-color="#2498FF"/>
</linearGradient>
<linearGradient id="paint5_linear_1_26" x1="296.5" y1="-0.710213" x2="-88.5002" y2="-0.710213" gradientUnits="userSpaceOnUse">
<stop stop-color="#4D6BFE"/>
<stop offset="0.603054" stop-color="#3982FF"/>
<stop offset="1" stop-color="#2498FF"/>
</linearGradient>
<linearGradient id="paint6_linear_1_26" x1="296.5" y1="-0.710213" x2="-88.5002" y2="-0.710213" gradientUnits="userSpaceOnUse">
<stop stop-color="#4D6BFE"/>
<stop offset="0.603054" stop-color="#3982FF"/>
<stop offset="1" stop-color="#2498FF"/>
</linearGradient>
<linearGradient id="paint7_linear_1_26" x1="296.5" y1="-0.710224" x2="-88.5002" y2="-0.710224" gradientUnits="userSpaceOnUse">
<stop stop-color="#4D6BFE"/>
<stop offset="0.603054" stop-color="#3982FF"/>
<stop offset="1" stop-color="#2498FF"/>
</linearGradient>
<linearGradient id="paint8_linear_1_26" x1="296.5" y1="-0.710201" x2="-88.5002" y2="-0.710201" gradientUnits="userSpaceOnUse">
<stop stop-color="#4D6BFE"/>
<stop offset="0.603054" stop-color="#3982FF"/>
<stop offset="1" stop-color="#2498FF"/>
</linearGradient>
</defs>
</svg>
